<svg width="24" height="24" viewBox="0 0 24 24" fill="none" xmlns="http://www.w3.org/2000/svg">
<g id="Back">
<g id="Left arrow">
<path id="Vector" d="M21 11.0013H5.14L8.77 6.64125C8.93974 6.43704 9.0214 6.17375 8.99702 5.90933C8.97264 5.6449 8.84422 5.40099 8.64 5.23125C8.43578 5.06151 8.1725 4.97985 7.90808 5.00423C7.64365 5.02861 7.39974 5.15704 7.23 5.36125L2.23 11.3613C2.19636 11.409 2.16628 11.4591 2.14 11.5113C2.14 11.5613 2.14 11.5913 2.07 11.6413C2.02467 11.7559 2.00094 11.878 2 12.0013C2.00094 12.1245 2.02467 12.2466 2.07 12.3613C2.07 12.4113 2.07 12.4413 2.14 12.4913C2.16628 12.5434 2.19636 12.5935 2.23 12.6413L7.23 18.6413C7.32402 18.7541 7.44176 18.8449 7.57485 18.9071C7.70793 18.9694 7.85309 19.0015 8 19.0013C8.23365 19.0017 8.46009 18.9203 8.64 18.7713C8.74126 18.6873 8.82496 18.5842 8.88631 18.4679C8.94766 18.3515 8.98546 18.2242 8.99754 18.0932C9.00961 17.9622 8.99573 17.8302 8.95669 17.7046C8.91764 17.579 8.8542 17.4623 8.77 17.3613L5.14 13.0013H21C21.2652 13.0013 21.5196 12.8959 21.7071 12.7084C21.8946 12.5208 22 12.2665 22 12.0013C22 11.736 21.8946 11.4817 21.7071 11.2941C21.5196 11.1066 21.2652 11.0013 21 11.0013Z" fill="white"/>
<path id="Vector_2" d="M2.07 12.3612C2.07 12.4112 2.07 12.4412 2.14 12.4912C2.16628 12.5434 2.19636 12.5935 2.23 12.6412L7.23 18.6412C7.32402 18.7541 7.44176 18.8449 7.57485 18.9071C7.70793 18.9693 7.85309 19.0015 8 19.0012C8.23365 19.0017 8.46009 18.9203 8.64 18.7712C8.74126 18.6873 8.82496 18.5842 8.88631 18.4678C8.94766 18.3515 8.98546 18.2242 8.99754 18.0932C9.00961 17.9622 8.99573 17.8301 8.95669 17.7045C8.91764 17.5789 8.8542 17.4623 8.77 17.3612L5.14 13.0012H21C21.2652 13.0012 21.5196 12.8959 21.7071 12.7083C21.8946 12.5208 22 12.2664 22 12.0012H2C2.00094 12.1245 2.02467 12.2466 2.07 12.3612Z" fill="white"/>
</g>
</g>
</svg>
