<svg width="14" height="17" viewBox="0 0 14 17" fill="none" xmlns="http://www.w3.org/2000/svg">
<path fill-rule="evenodd" clip-rule="evenodd" d="M11 4.6C11 4.25507 10.8596 3.92443 10.6093 3.6809C10.3596 3.43693 10.0204 3.3 9.66667 3.3H4.33333C3.97956 3.3 3.64044 3.43693 3.39067 3.6809C3.14044 3.92443 3 4.25507 3 4.6C3 6.6293 3 11.6707 3 13.7C3 14.0449 3.14044 14.3756 3.39067 14.6191C3.64044 14.8631 3.97956 15 4.33333 15H9.66667C10.0204 15 10.3596 14.8631 10.6093 14.6191C10.8596 14.3756 11 14.0449 11 13.7V4.6ZM6.60267 7.0063L5.71378 8.73963C5.64489 8.87397 5.652 9.03343 5.73289 9.16127C5.81422 9.2891 5.95689 9.36667 6.11111 9.36667H7.104L6.17467 10.8773C6.04844 11.0822 6.11644 11.3487 6.32711 11.4714C6.53733 11.5944 6.81067 11.5281 6.93644 11.3227L8.26978 9.15607C8.35244 9.0226 8.35467 8.85577 8.27556 8.7197C8.19689 8.58407 8.04889 8.5 7.88889 8.5H6.83022L7.39733 7.3937C7.50711 7.18007 7.41822 6.9192 7.19867 6.8126C6.97956 6.70557 6.712 6.79223 6.60267 7.0063ZM5.22222 2.86667H8.77778C9.02311 2.86667 9.22222 2.67253 9.22222 2.43333C9.22222 2.19413 9.02311 2 8.77778 2H5.22222C4.97689 2 4.77778 2.19413 4.77778 2.43333C4.77778 2.67253 4.97689 2.86667 5.22222 2.86667Z" fill="#0FB916"/>
</svg>
