<svg width="25" height="24" viewBox="0 0 25 24" fill="none" xmlns="http://www.w3.org/2000/svg">
<g id="location">
<path id="Vector" d="M12.53 2.00002C14.79 2.01004 16.95 2.91004 18.53 4.49004C20.12 6.08004 21.01 8.23004 21.0001 10.46V10.51C20.94 13.54 19.24 16.33 17.12 18.51C15.92 19.74 14.59 20.83 13.14 21.75C12.75 22.08 12.18 22.08 11.79 21.75C9.64 20.35 7.74 18.59 6.2 16.54C4.85 14.76 4.08 12.62 4 10.39C4.02 5.74004 7.84 1.99004 12.53 2.00002ZM12.53 7.93004C11.04 7.93004 9.84 9.12004 9.84 10.6C9.84 12.061 11.02 13.24 12.5 13.26H12.53C13.24 13.26 13.92 12.99 14.42 12.5C14.94 11.99 15.231 11.311 15.231 10.6C15.231 9.12004 14.02 7.93004 12.53 7.93004Z" fill="#0060A6"/>
</g>
</svg>
