<svg width="32" height="32" viewBox="0 0 32 32" fill="none" xmlns="http://www.w3.org/2000/svg">
<g id="noun-power-714771 2">
<path id="Vector" d="M9.85681 8.51353C9.93965 8.44261 10.0078 8.35552 10.0574 8.25735C10.1069 8.15918 10.1369 8.0519 10.1454 7.94178C10.154 7.83165 10.141 7.72089 10.1072 7.61596C10.0734 7.51103 10.0195 7.41404 9.94859 7.33065C9.87773 7.24726 9.79132 7.17914 9.69442 7.13029C9.59751 7.08143 9.49206 7.0528 9.38421 7.04608C9.27637 7.03936 9.1683 7.05468 9.06631 7.09115C8.96432 7.12762 8.87046 7.1845 8.79022 7.25847C7.09423 8.76338 5.88933 10.763 5.33741 12.9886C4.7855 15.2142 4.913 17.5592 5.70279 19.7086C6.49259 21.8579 7.90684 23.7086 9.75552 25.0121C11.6042 26.3155 13.7988 27.0092 16.0444 26.9999C18.2899 26.9907 20.4789 26.2789 22.3173 24.9603C24.1556 23.6417 25.5552 21.7793 26.3281 19.6236C27.1009 17.4678 27.2099 15.1218 26.6404 12.9008C26.071 10.6798 24.8504 8.69018 23.1426 7.1993C23.0614 7.12837 22.9673 7.07449 22.8657 7.04073C22.7641 7.00697 22.6571 6.994 22.5506 7.00255C22.4441 7.01111 22.3403 7.04102 22.2452 7.09058C22.15 7.14015 22.0653 7.20839 21.996 7.29141C21.9266 7.37444 21.8739 7.47063 21.8409 7.57448C21.8079 7.67833 21.7952 7.78781 21.8035 7.89667C21.8204 8.11653 21.922 8.32052 22.086 8.46377C23.1173 9.36315 23.9453 10.4807 24.513 11.7392C25.0806 12.9976 25.3744 14.3671 25.3739 15.753C25.3735 21.0381 21.1685 25.3367 15.9999 25.3367C10.8313 25.3367 6.62634 21.0381 6.62634 15.7525C6.62638 14.3797 6.91482 13.023 7.47216 11.7741C8.0295 10.5252 8.84273 9.41322 9.85681 8.51353Z" fill="#0060A6" stroke="#0060A6" stroke-width="0.4"/>
<path id="Vector_2" d="M17 18.001V3.99899C17 3.8678 16.9741 3.7379 16.9239 3.61669C16.8736 3.49549 16.8 3.38536 16.7071 3.2926C16.6142 3.19983 16.504 3.12625 16.3827 3.07604C16.2614 3.02584 16.1313 3 16 3C15.8687 3 15.7386 3.02584 15.6173 3.07604C15.496 3.12625 15.3858 3.19983 15.2929 3.2926C15.2 3.38536 15.1264 3.49549 15.0761 3.61669C15.0259 3.7379 15 3.8678 15 3.99899V18.001C15 18.1322 15.0259 18.2621 15.0761 18.3833C15.1264 18.5045 15.2 18.6146 15.2929 18.7074C15.3858 18.8002 15.496 18.8738 15.6173 18.924C15.7386 18.9742 15.8687 19 16 19C16.1313 19 16.2614 18.9742 16.3827 18.924C16.504 18.8738 16.6142 18.8002 16.7071 18.7074C16.8 18.6146 16.8736 18.5045 16.9239 18.3833C16.9741 18.2621 17 18.1322 17 18.001Z" fill="#0060A6" stroke="#0060A6" stroke-width="0.4"/>
</g>
</svg>
