<svg width="24" height="30" viewBox="0 0 24 30" fill="none" xmlns="http://www.w3.org/2000/svg">
<g id="Frame 106">
<path id="Union" fill-rule="evenodd" clip-rule="evenodd" d="M20.5707 6.12676H23.9991L24 30H0V0H17.7851V3.38028C17.7877 4.89507 19.0343 6.12423 20.5707 6.12676ZM17.5708 12.0423C17.9256 12.0423 18.2136 11.7583 18.2136 11.4085C18.2136 11.0586 17.9256 10.7746 17.5708 10.7746H6.42834C6.0735 10.7746 5.78551 11.0586 5.78551 11.4085C5.78551 11.7583 6.0735 12.0423 6.42834 12.0423H17.5708ZM4.28556 6.5493C3.93072 6.5493 3.64273 6.83324 3.64273 7.1831C3.64273 7.53296 3.93072 7.8169 4.28556 7.8169H7.71401C8.06886 7.8169 8.35684 7.53296 8.35684 7.1831C8.35684 6.83324 8.06886 6.5493 7.71401 6.5493H4.28556ZM17.5708 15H6.42834C6.0735 15 5.78551 15.2839 5.78551 15.6338C5.78551 15.9837 6.0735 16.2676 6.42834 16.2676H17.5708C17.9256 16.2676 18.2136 15.9837 18.2136 15.6338C18.2136 15.2839 17.9256 15 17.5708 15Z" fill="#0060A6"/>
<path id="Vector" d="M20.5556 5H23L19 1V3.44444C19 3.87156 19.1738 4.25778 19.4573 4.54267C19.7422 4.82622 20.128 5 20.5556 5Z" fill="#0060A6"/>
</g>
</svg>
