<svg width="32" height="32" viewBox="0 0 32 32" fill="none" xmlns="http://www.w3.org/2000/svg">
<g id="noun-reports-1431848 2">
<g id="Group">
<path id="Vector" d="M6.86443 18.8002H18.3882V19.7747H6.86443V18.8002Z" fill="#0060A6" stroke="#0060A6" stroke-width="0.4"/>
<path id="Vector_2" d="M6.86443 15.3295H12.0999V16.304H6.86443V15.3295Z" fill="#0060A6" stroke="#0060A6" stroke-width="0.4"/>
<path id="Vector_3" d="M6.86443 22.2364H18.3882V23.2109H6.86443V22.2364Z" fill="#0060A6" stroke="#0060A6" stroke-width="0.4"/>
<path id="Vector_4" d="M6.86443 25.7071H15.8454V26.6816H6.86443V25.7071Z" fill="#0060A6" stroke="#0060A6" stroke-width="0.4"/>
<path id="Vector_5" d="M29 5.85169L23.0896 0.353699H9.41338V6.64202H2.8158V31.2799H22.4024V24.9916H29V5.85169ZM23.5707 2.69034L26.5602 5.43934H23.5707V2.69034ZM4.19029 29.9054V8.01652H15.633V13.1709H21.0279V29.9054H4.19029ZM17.0075 8.97867L20.0314 11.7964H17.0075V8.97867ZM22.4024 23.6171V12.14L16.4577 6.64202H10.7879V1.7282H22.1962V6.81384H27.6255V23.6171H22.4024Z" fill="#0060A6" stroke="#0060A6" stroke-width="0.4"/>
</g>
</g>
</svg>
