<svg width="32" height="32" viewBox="0 0 32 32" fill="none" xmlns="http://www.w3.org/2000/svg">
<g id="noun-route-1703116 2">
<g id="Group">
<path id="Vector" d="M26.34 0.393982C29.0183 0.393982 31.2465 2.4971 31.2465 5.29094C31.2465 5.97309 31.0942 6.85876 30.8639 7.48116C29.5507 10.3037 28.2245 13.1319 26.9042 15.9552C26.8064 16.1649 26.5809 16.3091 26.3495 16.3091H18.392C16.8554 16.3091 15.6374 17.527 15.6374 19.0636C15.6374 20.6002 16.8554 21.8182 18.392 21.8182H22.3707C24.9035 21.8182 26.9616 23.8763 26.9616 26.4091C26.9616 28.9419 24.9035 31 22.3707 31H7.37379C7.14235 31 6.91693 30.8558 6.81906 30.6461C5.32903 27.467 3.77198 24.3105 2.29509 21.1295C2.04366 20.4605 1.86471 19.5126 1.86471 18.7576C1.86471 15.6491 4.36017 13.2485 7.38334 13.2485C10.4066 13.2485 12.8829 15.6509 12.8829 18.7576C12.8829 19.5131 12.702 20.4621 12.4525 21.1295C11.0888 24.0102 9.71135 26.8939 8.33978 29.7757H22.3707C24.2465 29.7757 25.7374 28.2848 25.7374 26.4091C25.7374 24.5334 24.2465 23.0424 22.3707 23.0424H18.392C16.1983 23.0424 14.4132 21.2573 14.4132 19.0636C14.4132 16.87 16.1983 15.0849 18.392 15.0849H25.3835C24.204 12.5487 22.9942 10.0215 21.8351 7.48116C21.6067 6.86047 21.4525 5.97361 21.4525 5.29094C21.4525 2.49885 23.6615 0.393982 26.34 0.393982ZM26.34 1.61822C24.285 1.61822 22.6768 3.12915 22.6768 5.29094C22.6768 5.74357 22.8436 6.66714 22.9828 7.05078C24.098 9.44928 25.2262 11.8467 26.3495 14.2432C27.4462 11.8347 28.5816 9.50578 29.7162 7.05078C29.8557 6.66849 30.0222 5.74458 30.0222 5.29094C30.0222 3.13089 28.3948 1.61822 26.34 1.61822ZM26.3494 3.14852C27.5254 3.14852 28.4919 4.11497 28.4919 5.29094C28.4919 6.46691 27.5254 7.43336 26.3494 7.43336C25.1735 7.43336 24.207 6.46691 24.207 5.29094C24.207 4.11497 25.1735 3.14852 26.3494 3.14852ZM26.3494 4.37276C25.8351 4.37276 25.4313 4.77661 25.4313 5.29094C25.4313 5.80527 25.8351 6.20912 26.3494 6.20912C26.8637 6.20912 27.2676 5.80524 27.2676 5.29094C27.2676 4.77661 26.8637 4.37276 26.3494 4.37276ZM7.38328 14.4727C4.99693 14.4727 3.08889 16.293 3.08889 18.7576C3.08889 19.2804 3.27182 20.2301 3.44276 20.6896C4.74605 23.4452 6.06235 26.1996 7.37373 28.9532C8.65811 26.1872 10.0313 23.3987 11.3047 20.6896C11.4753 20.2289 11.6586 19.2794 11.6586 18.7576C11.6586 16.2912 9.76969 14.4727 7.38328 14.4727ZM7.37379 16.003C8.88781 16.003 10.1283 17.2435 10.1283 18.7576C10.1283 20.2716 8.88781 21.5121 7.37379 21.5121C5.85974 21.5121 4.61925 20.2716 4.61925 18.7576C4.61925 17.2435 5.85974 16.003 7.37379 16.003ZM7.37379 17.2273C6.52138 17.2273 5.84349 17.9052 5.84349 18.7576C5.84349 19.61 6.52138 20.2879 7.37379 20.2879C8.22617 20.2879 8.90409 19.61 8.90409 18.7576C8.90409 17.9052 8.22617 17.2273 7.37379 17.2273Z" fill="#0060A6" stroke="#0060A6" stroke-width="0.4"/>
</g>
</g>
</svg>
