<svg width="32" height="32" viewBox="0 0 32 32" fill="none" xmlns="http://www.w3.org/2000/svg">
<g id="noun-rupee-1663356 2">
<g id="Group">
<g id="Group_2">
<g id="Group_3">
<path id="Vector" d="M20.1829 25.5967C19.8769 25.3028 19.5684 25.0089 19.2624 24.7149C18.524 24.01 17.7881 23.3025 17.0496 22.5976C16.1594 21.747 15.2718 20.8964 14.3816 20.0458C13.6103 19.3071 12.839 18.5684 12.0677 17.8322C11.6934 17.4733 11.3242 17.1065 10.9423 16.7553C10.9372 16.7501 10.9322 16.7449 10.9271 16.7397C11.0257 16.9843 11.1244 17.2314 11.223 17.4759C11.223 17.2288 11.223 16.979 11.223 16.7319C10.8867 17.0779 10.5478 17.4265 10.2114 17.7724C10.702 17.7724 11.1952 17.7724 11.6858 17.7724C12.1916 17.7724 12.7024 17.7906 13.2082 17.7672C15.4513 17.6606 17.563 16.3288 18.6074 14.2686C19.1309 13.2386 19.404 12.068 19.3459 10.9053C19.2877 9.7556 18.9514 8.61629 18.3368 7.65125C17.7324 6.70442 16.9004 5.89286 15.9167 5.37263C14.9936 4.881 13.9795 4.62089 12.9401 4.61829C11.8527 4.61829 10.7627 4.61829 9.6753 4.61829C9.6399 4.61829 9.60702 4.61829 9.57162 4.61829C9.04307 4.61829 8.53476 5.0969 8.56005 5.65875C8.58534 6.22321 9.00514 6.69922 9.57162 6.69922C10.6363 6.69922 11.7035 6.69922 12.7682 6.69922C13.0666 6.69922 13.365 6.70703 13.6609 6.74604C13.5724 6.73304 13.4813 6.72003 13.3928 6.70963C13.8682 6.77466 14.331 6.90472 14.7736 7.0946C14.6927 7.06079 14.6117 7.02437 14.5308 6.99055C14.9633 7.18044 15.3679 7.42495 15.7396 7.71888C15.6714 7.66426 15.6031 7.60963 15.5348 7.55501C15.8939 7.84374 16.2151 8.17409 16.4958 8.54345C16.4427 8.47322 16.3896 8.40299 16.3365 8.33276C16.6222 8.71513 16.86 9.13132 17.0446 9.57612C17.0117 9.49288 16.9763 9.40964 16.9434 9.32641C17.128 9.78161 17.2545 10.2576 17.3177 10.7466C17.305 10.6556 17.2924 10.562 17.2823 10.4709C17.343 10.9495 17.343 11.436 17.2823 11.9146C17.2949 11.8235 17.3076 11.7299 17.3177 11.6388C17.2545 12.1279 17.128 12.6039 16.9434 13.0591C16.9763 12.9758 17.0117 12.8926 17.0446 12.8094C16.86 13.2542 16.6222 13.6704 16.3365 14.0527C16.3896 13.9825 16.4427 13.9123 16.4958 13.842C16.2151 14.2114 15.8939 14.5418 15.5348 14.8305C15.6031 14.7759 15.6714 14.7212 15.7396 14.6666C15.3679 14.9605 14.9633 15.2051 14.5308 15.3949C14.6117 15.3611 14.6927 15.3247 14.7736 15.2909C14.331 15.4808 13.8682 15.6108 13.3928 15.6759C13.4813 15.6629 13.5724 15.6499 13.6609 15.6394C13.2107 15.6993 12.758 15.6863 12.3054 15.6863C11.7465 15.6863 11.1901 15.6863 10.6312 15.6863C10.4921 15.6863 10.3505 15.6863 10.2114 15.6863C9.66519 15.6863 9.19986 16.1623 9.19986 16.7267C9.19986 16.9686 9.19481 17.2106 9.19986 17.4525C9.20492 17.762 9.32884 18.0455 9.54633 18.2536C9.70818 18.4071 9.87003 18.5632 10.0319 18.7166C10.7374 19.3903 11.443 20.0666 12.1486 20.7403C13.0843 21.6351 14.02 22.5299 14.9557 23.4274C15.7978 24.2337 16.6425 25.0401 17.4846 25.8464C17.9019 26.247 18.3166 26.6502 18.7364 27.0456C18.7415 27.0508 18.7491 27.056 18.7541 27.0612C18.9488 27.2459 19.1992 27.3655 19.4698 27.3655C19.7176 27.3655 20.0135 27.2511 20.1855 27.0612C20.3625 26.8635 20.494 26.6034 20.4814 26.3251C20.4662 26.0623 20.3802 25.7866 20.1829 25.5967Z" fill="#0060A6" stroke="#0060A6" stroke-width="0.4"/>
</g>
</g>
<g id="Group_4">
<g id="Group_5">
<path id="Vector_2" d="M9.57162 6.69927C10.0167 6.69927 10.4618 6.69927 10.9069 6.69927C11.9766 6.69927 13.0463 6.69927 14.1161 6.69927C15.4058 6.69927 16.693 6.69927 17.9828 6.69927C19.1006 6.69927 20.2184 6.69927 21.3361 6.69927C21.8799 6.69927 22.4236 6.70708 22.9648 6.69927C22.9723 6.69927 22.9799 6.69927 22.9875 6.69927C23.5161 6.69927 24.0244 6.22066 23.9991 5.6588C23.9738 5.09435 23.554 4.61834 22.9875 4.61834C22.5424 4.61834 22.0973 4.61834 21.6522 4.61834C20.5825 4.61834 19.5128 4.61834 18.4431 4.61834C17.1533 4.61834 15.8661 4.61834 14.5763 4.61834C13.4586 4.61834 12.3408 4.61834 11.223 4.61834C10.6793 4.61834 10.1356 4.61053 9.59438 4.61834C9.58679 4.61834 9.5792 4.61834 9.57162 4.61834C9.04307 4.61834 8.53476 5.09695 8.56005 5.6588C8.58534 6.22326 9.00514 6.69927 9.57162 6.69927Z" fill="#0060A6" stroke="#0060A6" stroke-width="0.4"/>
</g>
</g>
<g id="Group_6">
<g id="Group_7">
<path id="Vector_3" d="M9.57162 12.2372C10.0167 12.2372 10.4618 12.2372 10.9069 12.2372C11.9766 12.2372 13.0463 12.2372 14.1161 12.2372C15.4058 12.2372 16.693 12.2372 17.9828 12.2372C19.1006 12.2372 20.2184 12.2372 21.3361 12.2372C21.8799 12.2372 22.4236 12.245 22.9648 12.2372C22.9723 12.2372 22.9799 12.2372 22.9875 12.2372C23.5161 12.2372 24.0244 11.7586 23.9991 11.1968C23.9738 10.6323 23.554 10.1563 22.9875 10.1563C22.5424 10.1563 22.0973 10.1563 21.6522 10.1563C20.5825 10.1563 19.5128 10.1563 18.4431 10.1563C17.1533 10.1563 15.8661 10.1563 14.5763 10.1563C13.4586 10.1563 12.3408 10.1563 11.223 10.1563C10.6793 10.1563 10.1356 10.1485 9.59438 10.1563C9.58679 10.1563 9.5792 10.1563 9.57162 10.1563C9.04307 10.1563 8.53476 10.6349 8.56005 11.1968C8.58534 11.7586 9.00514 12.2372 9.57162 12.2372Z" fill="#0060A6" stroke="#0060A6" stroke-width="0.4"/>
</g>
</g>
</g>
</g>
</svg>
