<svg width="32" height="32" viewBox="0 0 32 32" fill="none" xmlns="http://www.w3.org/2000/svg">
<path d="M25.2839 23.6449H23.042C25.0704 21.5853 26.3515 18.8752 26.3515 15.84C26.3515 9.87802 21.5474 5 15.6757 5C15.0352 5 14.6082 5.4336 14.6082 6.084C14.6082 6.73441 15.0352 7.16801 15.6757 7.16801C20.3731 7.16801 24.2164 11.0704 24.2164 15.84C24.2164 18.6584 22.9353 21.2601 20.6934 22.7777V18.9836C20.6934 18.3332 20.2663 17.8996 19.6258 17.8996C18.9852 17.8996 18.5582 18.3332 18.5582 18.9836V24.7289C18.5582 25.3793 18.9852 25.8129 19.6258 25.8129H25.2839C25.9245 25.8129 26.3515 25.3793 26.3515 24.7289C26.3515 24.0785 25.9245 23.6449 25.2839 23.6449Z" fill="#0060A6"/>
<path d="M15.6758 24.5121C10.9784 24.5121 7.13516 20.6097 7.13516 15.8401C7.13516 13.0217 8.41625 10.4201 10.6582 8.90246V12.6965C10.6582 13.3469 11.0852 13.7805 11.7258 13.7805C12.3663 13.7805 12.7933 13.3469 12.7933 12.6965V6.95125C12.7933 6.30085 12.3663 5.86725 11.7258 5.86725H6.06758C5.42703 5.86725 5 6.30085 5 6.95125C5 7.60165 5.42703 8.03526 6.06758 8.03526H8.3095C6.17434 10.0949 5 12.8049 5 15.8401C5 21.8021 9.80411 26.6801 15.6758 26.6801C16.3163 26.6801 16.7434 26.2465 16.7434 25.5961C16.7434 24.9457 16.3163 24.5121 15.6758 24.5121Z" fill="#0060A6"/>
</svg>
